<svg width="843" height="834" viewBox="0 0 843 834" fill="none" xmlns="http://www.w3.org/2000/svg">
<path d="M391 0.938471L261 84.4044L261 218.604L391 334.802L521 218.604L521 84.4044L391 0.938471Z" fill="#FF4D41"/>
<rect width="320.988" height="5.83615" rx="2.91808" transform="matrix(4.04143e-08 -1 -1 -4.72775e-08 393.772 328.432)" fill="#D30A0A"/>
<rect x="355.388" y="192.208" width="23" height="23" rx="11.5" fill="#FF4D41" stroke="white" stroke-width="9"/>
<rect x="403.438" y="192.208" width="23" height="23" rx="11.5" fill="#FF4D41" stroke="white" stroke-width="9"/>
<path d="M457.33 224.833C420.615 261.547 361.089 261.547 324.375 224.833" stroke="white" stroke-width="24.8036" stroke-linecap="round"/>
<path d="M538.804 358.932C540.091 357.649 541.285 356.53 542.95 355.76C551.734 351.7 573.444 349.1 583.772 347.891C637.268 341.629 691.039 344.182 743.21 357.908C750.158 359.736 761.837 361.682 767.424 366.324C769.441 367.999 769.871 369.341 770.049 371.911C770.52 378.701 761.031 417.665 758.643 425.014C757.943 427.172 756.894 430.478 755.203 432.004C753.341 433.683 750.001 433.913 747.643 433.739C741.972 433.32 735.972 431.193 730.461 429.772C722.633 427.75 714.773 425.864 706.879 424.121C700.864 422.785 688.25 419.122 686.33 427.606C684.267 436.719 685.474 448.549 685.729 457.947L686.916 501.435C687.774 517.413 687.934 533.482 688.597 549.469C688.955 558.129 689.821 566.748 689.882 575.418C689.91 579.59 689.628 584.378 685.241 586.306C683.427 587.044 680.304 587.316 678.402 586.928C662.87 583.751 647.442 581.196 631.69 579.311C627.355 578.794 623.832 577.16 623.095 572.465C622.065 565.93 622.166 559.302 622.118 552.667L622.047 526.519C622.123 499.087 622.041 471.658 621.805 444.229C621.733 436.372 622.031 426.862 620.94 419.167C620.152 413.614 607.853 415.558 603.779 415.94C595.377 416.681 586.994 417.65 578.646 418.836C571.671 419.874 564.687 421.197 557.648 421.645C551.546 422.036 547.471 419.542 545.906 413.48C543.837 405.219 542.415 396.887 540.96 388.477C539.682 381.108 537.428 373.522 536.998 366.048C536.837 363.232 537.477 361.358 538.804 358.932Z" fill="#FF4D41"/>
<path fill-rule="evenodd" clip-rule="evenodd" d="M249.912 391.191C257.821 402.79 262.932 416.066 264.843 429.975C274.381 500.428 207.795 575.813 138.918 581.672C129.945 582.435 120.357 583.997 111.39 584.165C103.628 584.311 85.2837 588.597 83.6998 577.534C82.4791 569.366 81.813 560.772 81.2567 552.537L78.77 517.143L70.1042 400.785C69.4973 392.192 68.8416 383.602 68.1373 375.016C66.1089 350.64 63.7762 348.575 90.2378 346.223C129.15 342.764 169.764 343.82 206.746 357.628C224.953 364.426 238.77 375.4 249.912 391.191ZM175.443 513.589C192.628 494.892 206.855 457.235 189.7 433.985C180.677 422.105 169.405 417.985 154.912 416.342C147.565 415.508 140.524 414.27 139.987 423.911C138.438 451.715 136.009 480.411 135.503 508.191C135.402 511.084 134.165 526.689 136.792 528.228C149.364 535.594 167.197 522.561 175.443 513.589Z" fill="#FF4D41"/>
<path d="M435.758 346.198C478.232 345.204 526.845 346.875 559.939 377.104C573.941 389.893 580.814 406.319 581.204 425.021C582.012 463.934 564.606 488.155 527.827 501.523C521.706 504.167 513.19 504.223 508.055 508.602C505.931 510.705 508.249 515.364 509.447 517.261C520.872 535.291 532.859 553.035 543.029 571.822C546.984 579.129 552.724 587.813 553.229 596.154C550.007 616.021 532.108 604.164 520.993 599.267C510.227 594.521 496.999 590.754 486.986 585.239C483.778 583.472 478.876 564.948 477.68 561.035C474.767 551.614 471.753 542.226 468.63 532.873C467.283 528.744 464.819 518.401 460.645 516.716C451.761 513.137 442.201 520.5 442.906 535.133C442.791 546.04 442.624 557.021 442.2 567.928C441.839 583.085 431.489 581.829 420.695 582.484C415.878 582.411 394.515 585.824 391.137 582.175C391.036 582.066 390.937 581.946 390.84 581.815L401.003 490.426L412 477.933L394.752 353.537C396.086 351.678 398.281 350.322 401.66 349.355C410.34 347.83 426.7 346.41 435.758 346.198ZM294.509 345.085C315.846 343.82 337.255 344.467 358.477 347.021C364.075 347.684 376.551 348.359 381.995 349.637C383.404 350.053 384.583 350.636 385.549 351.372L368 477.933L378.996 490.426L389.129 581.543C388.868 581.761 388.589 581.96 388.287 582.134C387.096 582.834 385.744 583.221 384.36 583.26C379.361 583.395 353.422 581.581 347.93 580.825C336.985 579.318 344.96 545.944 333.479 544.605C324.096 543.512 312.773 543.875 303.186 544.072C299.782 544.144 295.602 546.236 294.791 549.979C293.424 558.608 292.508 566.754 290.58 575.354C287.369 583.144 281.753 582.964 274.46 584.298C267.912 585.495 261.22 588.02 254.53 588.251C252.367 588.326 249.782 587.164 248.452 585.435C247.43 583.983 247.604 577.609 247.726 575.843C248.851 559.443 250.488 543.009 252.08 526.651L262.633 427.231L267.756 379.421C268.57 371.593 269.22 363.366 270.354 355.591C270.733 352.992 272.459 349.773 274.808 348.456C280.031 345.528 288.588 345.423 294.509 345.085ZM323.631 431.736C320.759 431.394 316.872 431.138 314.402 432.954C310.575 435.77 301.771 487.171 301.062 495.396C300.89 497.381 300.594 501.16 301.705 502.828C303.088 504.903 308.307 504.945 310.576 504.93C314.111 504.905 317.654 504.747 321.188 504.623C325.521 504.622 333.132 505.299 336.483 502.189C337.851 500.919 337.376 495.731 337.292 493.86C336.081 481.866 334.482 469.875 332.694 457.953C331.622 450.801 330.731 443.472 328.841 436.49C328.143 433.915 325.968 432.633 323.631 431.736ZM469.095 404.535C465.747 404.347 452.567 404.518 449.303 405.195C447.767 406.201 446.111 407.141 445.866 409.151C445.197 414.691 445.109 420.166 444.987 425.77C444.726 437.504 444.273 449.317 444.251 461.059C444.246 462.404 444.462 464.525 445.21 465.622C446.607 467.515 459.96 468.481 462.209 468.574C475.944 469.148 491.502 469.787 503.784 462.695C507.593 459.922 510.516 457.207 512.639 452.886C517.571 442.849 518.502 428.834 511.66 419.417C502.317 406.638 483.623 405.353 469.095 404.535Z" fill="#FF4D41"/>
<path d="M818.808 592.702L819.135 593.061C821.033 595.189 823.053 598.358 821.94 601.076C819.701 606.551 813.068 614.791 809.532 619.538L776.685 663.789C771.514 670.797 765.893 677.72 761.275 685.08C758.21 689.977 757.497 694.864 761.189 699.567C767.942 708.167 775.15 716.434 782.252 724.75L825.608 775.157C830.684 781.041 837.054 787.173 841.094 793.736C842.226 795.577 842.583 797.414 842.422 799.557C842.29 801.317 841.779 802.355 840.43 803.498C832.202 810.453 779.327 824.148 767.893 823.33C764.78 823.107 762.832 822.422 760.819 819.985C756.319 814.541 749.316 793.59 746.107 785.519C740.551 771.918 735.101 758.274 729.764 744.588C728.09 740.264 724.387 728.676 721.582 725.592C717.271 720.854 709.453 725.385 709.043 732.229C708.588 739.906 709.23 747.476 709.428 755.324C709.61 766.098 709.851 776.873 710.157 787.645C711.619 836.376 715.817 831.005 668.491 828.4C661.413 827.872 642.139 827.433 639.761 821.299C637.634 815.808 640.976 791.829 641.542 785.372L651.537 683.323L656.744 627.004C657.473 618.878 657.582 606.399 659.794 599.006C660.471 596.747 661.707 595.01 663.87 593.974C665.171 593.353 666.616 593.105 668.049 593.067C674.488 592.894 681.216 593.813 687.674 594.1C693.741 594.367 699.859 594.04 705.906 594.453C707.492 594.559 709.238 594.721 710.728 595.305C712.876 596.148 714.078 598.907 714.586 600.981C717.426 612.548 714.097 665.561 717.371 670.451C717.994 671.386 718.512 671.285 719.51 671.346C722.202 669.831 730.836 650.202 732.674 646.382C739.532 632.087 746.534 617.865 753.685 603.718C756.456 598.193 762.5 582.543 768.739 579.8C769.718 579.367 775.133 579.504 776.458 579.931C787.689 583.545 809.133 587.012 818.808 592.702Z" fill="#FF4D41"/>
<path fill-rule="evenodd" clip-rule="evenodd" d="M582.737 596.457C587.456 598.386 588.788 602.459 590.187 607.014C594.148 619.903 597.574 632.941 601.469 645.857L631.797 746.007C636.593 761.459 641.303 776.939 645.927 792.446C647.596 798.074 650.331 804.551 650.855 810.323C651.047 812.437 650.668 814.75 649.158 816.339C647.602 817.974 645.325 818.958 643.216 819.65C631.857 823.398 618.523 824.439 606.664 825.845C601.892 826.407 596.907 827.288 592.108 827.389C589.266 827.445 585.944 826.81 584.153 824.349C578.94 817.199 579.734 780.096 574.048 775.14C570.519 772.065 561.137 773.788 556.747 774.024C550.025 774.257 538.494 773.336 532.534 775.258C530.977 775.762 529.769 776.509 528.893 777.92C524.068 785.701 524.59 813.561 519.671 822.345C518.483 824.468 516.859 825.96 514.495 826.619C507.49 828.563 465.106 823.286 458.687 819.52C456.751 818.386 455.579 816.465 455.139 814.282C454.627 811.75 455.802 808.491 456.546 806.062C460.09 794.531 464.296 783.13 468.074 771.666C479.561 736.406 491.359 701.245 503.476 666.196L514.759 632.051C517.59 623.365 522.767 604.851 527.358 598.466C532.61 595.194 563.289 598.348 570.993 596.507C572.718 596.097 580.895 596.165 582.737 596.457ZM564.138 663.631C563.604 660.892 561.79 659.816 559.426 658.823C556.19 658.721 551.78 658.528 549.277 660.961C545.743 664.388 533.755 716.251 534.144 723.553C534.214 724.904 534.403 725.984 534.95 727.218C539.528 730.953 548.983 730.096 555.021 730.084C557.719 730.076 560.608 730.135 563.209 730.037C568.358 729.842 575.248 730.446 574.386 723.113C572.059 703.27 567.957 683.249 564.138 663.631Z" fill="#FF4D41"/>
<path d="M357.326 592.537C360.857 592.224 365.484 592.716 369.039 593.057C394.848 595.548 420.983 594.052 446.645 590.78C449.162 590.457 455.977 590.199 457.283 592.391C462.13 600.526 461.132 614.265 462.497 623.69C464.195 636.856 448.005 635.905 438.912 636.701C429.884 637.567 420.841 638.241 411.788 638.733C406.822 638.985 401.51 639.03 396.609 639.803C391.801 640.558 389.822 643.431 389.68 648.217C389.463 655.591 389.733 663.284 390.308 670.68C394.396 675.464 398.272 674.695 404.163 674.535C418.113 674.158 432.026 673.013 445.96 672.313C451.318 672.044 455.542 674.04 455.891 679.874C456.509 689.397 457.457 699.195 457.861 708.725C458.251 720.057 446.046 718.646 438.311 719.414C424.758 720.758 410.934 720.599 397.44 722.114C392.248 722.694 389.163 726.572 389.195 731.729C388.9 738.18 390.025 745.222 389.698 751.597C388.845 768.231 407.257 764.385 419.408 763.666C431.366 762.983 443.309 762.083 455.235 760.978C461.459 760.227 478.377 756.578 480.464 764.284C484.321 778.55 485.087 794.312 487.218 808.975C489.307 823.375 471.071 822.795 460.86 824.172C422.01 829.436 382.651 829.792 343.71 825.242C337.2 824.535 329.669 824.094 323.584 821.811C318.153 819.593 317.047 814.872 317.657 809.627C319.771 791.458 322.535 773.39 325.135 755.295C330.222 718.811 335.803 682.4 341.875 646.067C343.276 637.486 348.01 602.149 351.073 596.799C352.492 594.321 354.701 593.342 357.326 592.537Z" fill="#FF4D41"/>
<path fill-rule="evenodd" clip-rule="evenodd" d="M177.717 593.983C179.869 592.035 182.483 590.697 185.415 591.069C196.3 592.447 206.927 592.792 217.868 593.163C234.026 593.788 250.087 591.157 266.147 593.944C301.414 600.065 319.413 645.39 313.764 677.28C310.445 696.029 296.21 712.212 279.851 720.982C274.04 724.1 276.423 730.111 280.576 733.42C287.847 739.561 296.787 744.782 304.808 749.796C320.336 759.622 336.035 769.17 351.9 778.441C357.621 781.804 368.888 786.865 372.81 792.067C374.031 793.686 374.964 795.717 374.609 797.784C374.23 800.014 372.465 801.688 370.631 802.843C359.512 809.83 292.02 828.128 280.561 824.932C274.395 823.213 269.417 811.524 266.499 806.406C258.209 792.626 250.108 778.73 242.201 764.725C238.553 758.246 234.452 749.487 230.386 743.674C229.455 742.343 228.13 740.692 226.532 740.136C225.123 739.645 223.84 739.718 222.483 740.327C221.156 740.923 219.675 741.81 219.034 743.157C216.956 747.545 219.615 795.342 219.998 803.498C220.287 809.617 222.078 821.788 219.746 827.113C218.982 828.863 217.51 829.951 215.717 830.501C208.446 832.734 153.932 826.802 147.065 823.07C144.671 821.769 142.041 819.009 141.416 816.3C139.983 810.094 145.673 782.062 146.927 773.925L167.889 644.761C170.169 630.672 172.092 616.414 174.353 602.325C174.859 599.165 176.059 596.689 177.717 593.983ZM230.013 634.989C225.198 635.647 220.048 634.816 216.086 638.481C215.315 644.557 214.197 686.163 215.239 689.953C220.843 696.489 244.631 690.683 251.454 686.98C257.824 682.371 262.796 677.914 263.735 669.941C266.441 646.951 253.856 631.745 230.013 634.989Z" fill="#FF4D41"/>
<path d="M16.4408 603.474C17.7874 590.42 27.8854 594.229 38.1724 593.445C43.486 593.025 48.781 592.417 54.0485 591.623C66.6159 589.655 78.9983 586.67 91.0783 582.699C96.072 581.094 106.325 576.261 111.332 578.652C116.111 580.935 125.67 600.153 127.522 605.744C128.086 607.455 128.371 608.989 127.44 610.634C123.483 617.62 86.6426 627.008 77.2905 629.564C75.0433 630.177 71.5582 630.94 70.4176 633.204C67.9044 638.195 74.0351 664.7 76.3528 670.483C77.1802 672.549 78.3465 674.883 80.5928 675.652C92.4842 679.725 138.71 655.703 146.892 659.877C148.861 660.882 150.547 663.206 151.715 665.018C155.094 670.266 157.297 676.685 160.004 682.319C162.156 686.801 165.109 691.225 166.474 696.02C167.139 698.359 167.269 700.575 166.021 702.741C164.952 704.595 163.195 705.936 161.338 706.94C153.6 711.128 133.884 715.513 124.541 718.027C118.843 719.485 96.1062 724.094 93.577 727.03C91.9924 728.866 91.9113 731.945 92.0475 734.222C92.447 740.897 94.7951 748.174 96.4517 754.645C100.351 769.886 104.819 784.952 108.99 800.116C110.427 805.335 112.802 811.507 112.811 816.919C112.814 818.936 112.487 821.347 110.944 822.805C101.425 831.804 38.6083 833.377 23.7094 832.943C18.1273 832.78 6.11084 833.318 2.25316 828.814C0.458027 826.722 0.015619 823.454 0.000400024 820.803C-0.0237775 815.092 1.05459 809.184 1.44983 803.454L5.02138 754.779L16.4408 603.474Z" fill="#FF4D41"/>
</svg>
