<svg width="17" height="13" viewBox="0 0 17 13" fill="none" xmlns="http://www.w3.org/2000/svg">
<path d="M15.5887 0.696429C15.5887 0.310491 15.2728 0 14.8802 0C14.4875 0 14.1716 0.310491 14.1716 0.696429V0.928571H0.944772C0.422195 0.928571 0 1.34353 0 1.85714V5.10714C0 5.62076 0.422195 6.03571 0.944772 6.03571H1.24001C1.85412 6.03571 2.30584 6.60446 2.15526 7.19062L0.974297 11.8451C0.903439 12.1237 0.968392 12.4167 1.14554 12.6431C1.32268 12.8694 1.59726 13 1.88954 13H4.72386C5.15787 13 5.53578 12.7098 5.63911 12.2978L6.40674 9.28571H9.48906C10.1888 9.28571 10.8117 8.85335 11.045 8.20625L11.8333 6.03571H12.7515C13.0024 6.03571 13.2416 5.93705 13.4187 5.76295L14.086 5.10714H16.0552C16.5778 5.10714 17 4.69219 17 4.17857V1.85714C17 1.34353 16.5778 0.928571 16.0552 0.928571H15.5828V0.696429H15.5887ZM9.48906 7.89286H6.75808L7.23046 6.03571H10.3305L9.71049 7.73906C9.67801 7.83192 9.58649 7.89286 9.48906 7.89286ZM2.36193 2.78571H13.6992C13.959 2.78571 14.1716 2.99464 14.1716 3.25C14.1716 3.50536 13.959 3.71429 13.6992 3.71429H2.36193C2.10212 3.71429 1.88954 3.50536 1.88954 3.25C1.88954 2.99464 2.10212 2.78571 2.36193 2.78571Z" fill="white"/>
</svg>
