<svg width="337" height="681" viewBox="0 0 337 681" fill="none" xmlns="http://www.w3.org/2000/svg">
<path d="M168.257 0.603142L0.341499 108.412L0.341492 281.753L168.257 431.84L336.172 281.753L336.172 108.412L168.257 0.603142Z" fill="#FF4D41"/>
<rect width="414.605" height="7.5383" rx="3.76915" transform="matrix(4.04143e-08 -1 -1 -4.72775e-08 171.837 423.834)" fill="#D30A0A"/>
<rect x="129.439" y="246.792" width="23.689" height="23.689" rx="11.8445" fill="#FF4D41" stroke="white" stroke-width="9.89399"/>
<rect x="183.752" y="246.792" width="23.689" height="23.689" rx="11.8445" fill="#FF4D41" stroke="white" stroke-width="9.89399"/>
<path d="M253.932 289.798C206.509 337.221 129.623 337.221 82.2002 289.798" stroke="white" stroke-width="32.0377" stroke-linecap="round"/>
<path d="M187.338 565.644L172.073 428.071L164.441 428.071L149.176 565.644L187.338 565.644Z" fill="#FF4D41"/>
<path d="M187.338 565.644L172.073 587.317L164.441 587.317L149.176 565.644L187.338 565.644Z" fill="#FF4D41"/>
<path d="M177.915 577.894L168.775 680.603L167.739 680.603L158.598 577.894L177.915 577.894Z" fill="#FF4D41"/>
</svg>
