<svg width="28" height="20" viewBox="0 0 28 20" fill="none" xmlns="http://www.w3.org/2000/svg">
<path d="M28 15.26L28 5.89C28 3.48 26.05 1.53 23.64 1.53L22 1.53C22.03 1.71 22.06 1.9 22.06 2.1L22.06 6.66C22.06 8.61 20.43 10.2 18.42 10.2L18.42 12.67C18.42 13.93 19.45 14.96 20.71 14.96L22.06 14.96C22.46 14.96 22.79 15.29 22.79 15.69C22.79 16.09 22.46 16.42 22.06 16.42L20.71 16.42C18.65 16.42 16.97 14.74 16.97 12.68L16.97 9.92C16.21 9.6 15.59 9.03 15.2 8.32C14.21 9.67 12.61 10.56 10.81 10.56C10.41 10.56 10.08 10.23 10.08 9.83C10.08 9.43 10.41 9.1 10.81 9.1C13 9.1 14.78 7.32 14.78 5.13L14.78 4.22C14.78 3.82 15.11 3.49 15.51 3.49C15.91 3.49 16.24 3.82 16.24 4.22L16.24 6.68C16.24 7.83 17.22 8.76 18.42 8.76C19.62 8.76 20.61 7.81 20.61 6.66L20.61 2.1C20.61 0.950001 19.63 0.0200008 18.43 0.0200008L12.59 0.0200005C12.55 0.0200005 12.51 5.46806e-07 12.47 5.45057e-07L12.47 0.0100003C9.82 0.0900002 8.45 1.81 8.02 2.39C7.93 2.52 7.88 2.66 7.88 2.82L7.88 18C7.88 18.24 8 18.47 8.2 18.6C8.75 18.97 10.05 19.64 12.55 19.64L23.64 19.64C26.05 19.63 28 17.67 28 15.26Z" fill="white"/>
<path d="M6.06055 17.3898L6.06055 3.75979C6.06055 3.35979 5.73055 3.02979 5.33055 3.02979L1.51055 3.02979C0.680548 3.02979 0.000547379 3.70979 0.000547343 4.53979L0.000546815 16.6098C0.000546779 17.4398 0.680547 18.1198 1.51055 18.1198L5.33055 18.1198C5.73055 18.1198 6.06055 17.7898 6.06055 17.3898ZM2.42055 13.0498C2.02055 13.0498 1.69055 12.7198 1.69055 12.3198L1.69055 8.82979C1.69055 8.42979 2.02055 8.09979 2.42055 8.09979L3.64055 8.09979C4.04055 8.09979 4.37055 8.42979 4.37055 8.82979L4.37055 12.3198C4.37055 12.7198 4.04055 13.0498 3.64055 13.0498L2.42055 13.0498Z" fill="white"/>
</svg>
