<svg width="37" height="26" viewBox="0 0 37 26" fill="none" xmlns="http://www.w3.org/2000/svg">
<g clip-path="url(#clip0_429_3855)">
<path d="M2.62064e-07 20.0047L7.98985e-07 7.72137C9.37084e-07 4.56204 2.51488 2.00572 5.62304 2.00572L7.73811 2.00572C7.69943 2.24169 7.66075 2.49077 7.66075 2.75296L7.66075 8.73078C7.66075 11.2871 9.76292 13.3715 12.3552 13.3715L12.3552 16.6094C12.3552 18.2612 11.0268 19.6115 9.40181 19.6115L7.66075 19.6115C7.14487 19.6115 6.71927 20.0442 6.71927 20.5684C6.71927 21.0929 7.14487 21.5254 7.66075 21.5254L9.40181 21.5254C12.0586 21.5254 14.2252 19.323 14.2252 16.6226L14.2252 13.0044C15.2053 12.5849 16.005 11.8377 16.508 10.9069C17.7847 12.6767 19.8483 13.8434 22.1697 13.8434C22.6856 13.8434 23.1113 13.4108 23.1113 12.8864C23.1113 12.3621 22.6856 11.9295 22.1697 11.9295C19.3453 11.9295 17.0497 9.596 17.0497 6.72507L17.0497 5.53213C17.0497 5.00775 16.624 4.57514 16.1081 4.57514C15.5923 4.57514 15.1667 5.00775 15.1667 5.53213L15.1667 8.757C15.1667 10.2646 13.9028 11.4837 12.3552 11.4837C10.8076 11.4837 9.53079 10.2384 9.53079 8.73078L9.53079 2.75296C9.53079 1.24538 10.7947 0.026219 12.3423 0.0262191L19.874 0.0262194C19.9257 0.0262194 19.9773 8.90787e-07 20.0289 8.93088e-07L20.0289 0.0131099C23.4465 0.117984 25.2134 2.37278 25.768 3.13312C25.884 3.30355 25.9485 3.48707 25.9485 3.69682L25.9485 23.5967C25.9485 23.9113 25.7937 24.2129 25.5358 24.3833C24.8265 24.8684 23.1499 25.7466 19.9257 25.7466L5.62304 25.7466C2.51488 25.7336 1.2396e-07 23.1642 2.62064e-07 20.0047Z" fill="#FF4D41"/>
<path d="M28.2949 22.7948L28.2949 4.92683C28.2949 4.40246 28.7204 3.96985 29.2364 3.96985L34.163 3.96985C35.2334 3.96985 36.1104 4.86128 36.1104 5.94935L36.1104 21.7722C36.1104 22.8604 35.2334 23.7517 34.163 23.7517L29.2364 23.7517C28.7204 23.7517 28.2949 23.3192 28.2949 22.7948ZM32.9894 17.1054C33.5052 17.1054 33.9308 16.6727 33.9308 16.1484L33.9308 11.5732C33.9308 11.0489 33.5052 10.6163 32.9894 10.6163L31.416 10.6163C30.9 10.6163 30.4744 11.0489 30.4744 11.5732L30.4744 16.1484C30.4744 16.6727 30.9 17.1054 31.416 17.1054L32.9894 17.1054Z" fill="#FF4D41"/>
</g>
<defs>
<clipPath id="clip0_429_3855">
<rect width="26" height="36.1111" fill="white" transform="matrix(-4.37114e-08 1 1 4.459e-08 1.1365e-06 0)"/>
</clipPath>
</defs>
</svg>
