<svg width="28" height="20" viewBox="0 0 28 20" fill="none" xmlns="http://www.w3.org/2000/svg">
<path d="M6.67036e-07 15.26L2.5746e-07 5.89C1.52116e-07 3.48 1.95 1.53 4.36 1.53L6 1.53C5.97 1.71 5.94 1.9 5.94 2.1L5.94 6.66C5.94 8.61 7.57 10.2 9.58 10.2L9.58 12.67C9.58 13.93 8.55 14.96 7.29 14.96L5.94 14.96C5.54 14.96 5.21 15.29 5.21 15.69C5.21 16.09 5.54 16.42 5.94 16.42L7.29 16.42C9.35 16.42 11.03 14.74 11.03 12.68L11.03 9.92C11.79 9.6 12.41 9.03 12.8 8.32C13.79 9.67 15.39 10.56 17.19 10.56C17.59 10.56 17.92 10.23 17.92 9.83C17.92 9.43 17.59 9.1 17.19 9.1C15 9.1 13.22 7.32 13.22 5.13L13.22 4.22C13.22 3.82 12.89 3.49 12.49 3.49C12.09 3.49 11.76 3.82 11.76 4.22L11.76 6.68C11.76 7.83 10.78 8.76 9.58 8.76C8.38 8.76 7.39 7.81 7.39 6.66L7.39 2.1C7.39 0.950001 8.37 0.0200008 9.57 0.0200008L15.41 0.0200005C15.45 0.0200005 15.49 5.46806e-07 15.53 5.45057e-07L15.53 0.0100003C18.18 0.0900002 19.55 1.81 19.98 2.39C20.07 2.52 20.12 2.66 20.12 2.82L20.12 18C20.12 18.24 20 18.47 19.8 18.6C19.25 18.97 17.95 19.64 15.45 19.64L4.36 19.64C1.95 19.63 7.7238e-07 17.67 6.67036e-07 15.26Z" fill="white"/>
<path d="M21.9395 17.3898L21.9395 3.75979C21.9395 3.35979 22.2695 3.02979 22.6695 3.02979L26.4895 3.02979C27.3195 3.02979 27.9995 3.70979 27.9995 4.53979L27.9995 16.6098C27.9995 17.4398 27.3195 18.1198 26.4895 18.1198L22.6695 18.1198C22.2695 18.1198 21.9395 17.7898 21.9395 17.3898ZM25.5795 13.0498C25.9795 13.0498 26.3095 12.7198 26.3095 12.3198L26.3095 8.82979C26.3095 8.42979 25.9795 8.09979 25.5795 8.09979L24.3595 8.09979C23.9595 8.09979 23.6295 8.42979 23.6295 8.82979L23.6295 12.3198C23.6295 12.7198 23.9595 13.0498 24.3595 13.0498L25.5795 13.0498Z" fill="white"/>
</svg>
