<svg width="681" height="337" viewBox="0 0 681 337" fill="none" xmlns="http://www.w3.org/2000/svg">
<path d="M0.60302 168.743L108.412 336.659L281.752 336.659L431.84 168.743L281.752 0.828137L108.412 0.82813L0.60302 168.743Z" fill="#FF4D41"/>
<rect width="414.605" height="7.5383" rx="3.76915" transform="matrix(-1 -4.04143e-08 -4.72775e-08 1 423.834 165.163)" fill="#D30A0A"/>
<rect x="246.792" y="207.561" width="23.689" height="23.689" rx="11.8445" transform="rotate(-90 246.792 207.561)" fill="#FF4D41" stroke="white" stroke-width="9.89399"/>
<rect x="246.792" y="153.247" width="23.689" height="23.689" rx="11.8445" transform="rotate(-90 246.792 153.247)" fill="#FF4D41" stroke="white" stroke-width="9.89399"/>
<path d="M289.798 83.0685C337.22 130.491 337.22 207.378 289.798 254.8" stroke="white" stroke-width="32.0377" stroke-linecap="round"/>
<path d="M565.645 149.662L428.071 164.927L428.071 172.56L565.645 187.825L565.645 149.662Z" fill="#FF4D41"/>
<path d="M565.645 149.662L587.317 164.927L587.317 172.56L565.645 187.825L565.645 149.662Z" fill="#FF4D41"/>
<path d="M577.894 159.085L680.603 168.225L680.603 169.262L577.894 178.402L577.894 159.085Z" fill="#FF4D41"/>
</svg>
