<svg width="716" height="708" viewBox="0 0 716 708" fill="none" xmlns="http://www.w3.org/2000/svg">
<path fill-rule="evenodd" clip-rule="evenodd" d="M131.594 108.683C143.134 108.315 154.602 110.629 165.096 115.442C218.192 139.922 241.109 219.399 214.772 269.778C211.341 276.341 208.192 283.684 204.352 289.979C201.027 295.43 195.903 310.05 187.527 306.266C181.321 303.508 175.064 300.177 169.104 296.928L143.447 283.03L58.8839 237.683C52.6534 234.311 46.4037 230.974 40.1352 227.673C22.3258 218.321 19.8634 219.028 29.9115 199.629C44.6873 171.101 63.3472 143.386 89.2525 123.82C102.006 114.188 115.72 109.444 131.594 108.683ZM183.653 214.382C178.265 194.205 158.416 167.711 134.71 169.352C122.484 170.369 114.65 176.372 107.113 185.703C103.292 190.433 99.324 194.772 105.777 199.401C124.386 212.748 143.225 227.1 162.278 239.713C164.24 241.06 174.523 248.806 176.75 247.663C187.41 242.191 186.238 224.064 183.653 214.382Z" fill="#FF4D41"/>
<path fill-rule="evenodd" clip-rule="evenodd" d="M408.591 0.0922852C415.833 0.389287 429.226 2.11811 436.541 3.53648C470.842 10.1877 516.838 21.6354 538.126 51.728C547.132 64.4588 549.773 78.8621 546.806 93.9567C540.63 125.363 522.046 143.377 490.151 147.667C484.77 148.718 477.917 147.27 473.023 149.887C470.948 151.205 471.993 155.354 472.623 157.088C478.64 173.579 485.159 189.937 490.035 206.816C491.931 213.381 495.019 221.364 493.962 228.154C487.888 243.552 475.587 230.885 467.516 225.001C459.698 219.3 449.731 213.953 442.654 207.766C440.386 205.784 439.697 190.04 439.422 186.687C438.734 178.607 437.959 170.535 437.09 162.473C436.732 158.919 436.567 150.176 433.508 148.09C426.998 143.656 424.944 157.682 424.06 161.53C422.055 170.274 419.995 179.067 417.741 187.756C414.793 199.871 407.399 193.832 398.611 192.465C394.754 191.561 384.571 190.528 382.498 187.004C380.296 183.266 382.524 168.58 382.959 164.275L386.94 125.773L396.386 37.5443C397.455 28.3182 398.241 19.0793 399.313 9.86C400.038 3.63116 402.021 0.511424 408.591 0.0922852ZM459.974 59.4402C457.317 58.7014 454.731 58.2816 451.99 58.2534C450.58 58.7917 449.085 59.2564 448.535 60.8286C447.026 65.1624 445.995 69.5456 444.914 74.0267C442.646 83.4092 440.211 92.8206 438.134 102.25C437.893 103.33 437.695 105.073 438.104 106.086C438.893 107.852 441.418 109.215 443.209 109.685C454.144 112.555 466.532 115.797 477.644 112.254C481.191 110.693 484.015 109.024 486.479 105.925C492.202 98.7263 495.408 87.6298 491.563 78.8634C486.297 66.9569 471.504 62.6454 459.974 59.4402Z" fill="#FF4D41"/>
<path fill-rule="evenodd" clip-rule="evenodd" d="M237.015 451.862C239.401 451.751 241.759 452.268 243.426 454.037C249.614 460.603 256.18 466.379 262.931 472.335C272.861 481.18 284.431 487.908 293.168 498.074C312.353 520.399 300.079 558.581 279.82 575.869C267.91 586.036 250.412 588.864 235.443 585.878C230.124 584.819 228.494 589.88 229.4 594.152C230.804 601.852 233.749 609.84 236.218 617.217C240.938 631.573 245.91 645.842 251.133 660.022C253.007 665.148 257.512 674.252 257.282 679.605C257.21 681.27 256.74 683.047 255.434 684.174C254.027 685.391 252.032 685.531 250.264 685.305C239.553 683.927 187.145 660.252 181.542 652.232C178.527 647.917 181.478 637.894 182.302 633.12C184.245 620.039 186.369 606.982 188.672 593.958C189.744 587.938 191.721 580.234 192.18 574.419C192.285 573.087 192.307 571.346 191.583 570.158C190.946 569.11 190.093 568.485 188.914 568.162C187.76 567.846 186.355 567.634 185.244 568.155C181.631 569.853 158.328 601.583 154.306 606.961C151.29 610.996 146.063 619.658 141.799 621.819C140.399 622.53 138.895 622.451 137.47 621.862C131.687 619.478 100.185 587.209 97.7777 581.25C96.9384 579.172 96.7124 576.045 97.7322 573.999C100.067 569.311 118.335 554.492 123.386 549.983L204.228 478.955C213.042 471.204 221.717 463.159 230.519 455.398C232.492 453.657 234.549 452.713 237.015 451.862ZM248.771 505.235C245.37 503.135 242.535 499.915 238.104 500.169C234.438 503.623 211.974 529.448 210.654 532.399C210.794 539.478 228.929 548.23 235.196 549.447C241.649 549.853 247.135 549.623 251.901 545.053C265.639 531.875 265.601 515.642 248.771 505.235Z" fill="#FF4D41"/>
<path d="M549.597 342.042L549.98 341.931C552.239 341.298 555.31 340.953 556.915 342.758C560.149 346.391 563.836 354.27 566.063 358.599L586.866 398.864C590.173 405.217 593.253 411.873 597.019 417.945C599.526 421.98 602.879 424.274 607.687 423.248C616.481 421.371 625.194 419.037 633.905 416.799L686.814 403.008C692.996 401.387 699.829 398.899 706.138 398.289C707.906 398.119 709.392 398.52 710.917 399.413C712.17 400.148 712.751 400.901 713.108 402.31C715.268 410.903 706.26 454.908 701.521 463.057C700.23 465.276 699.019 466.467 696.492 467.073C690.844 468.427 672.837 466.022 665.715 465.473C653.66 464.658 641.612 463.748 629.573 462.741C625.774 462.413 615.876 460.957 612.584 461.914C607.526 463.384 608.045 470.797 612.951 473.575C618.456 476.687 624.28 478.951 630.148 481.643C638.171 485.405 646.216 489.124 654.283 492.794C690.804 509.339 688.355 504.296 669.315 538.307C666.365 543.344 659.07 557.421 653.679 556.958C648.854 556.544 632.353 545.403 627.789 542.65L556.032 498.36L516.319 474.146C510.581 470.668 501.404 466.074 496.743 461.767C495.32 460.45 494.484 458.909 494.501 456.936C494.513 455.751 494.853 454.594 495.343 453.522C497.543 448.704 500.656 444.067 503.204 439.401C505.594 435.016 507.566 430.379 510.058 426.063C510.71 424.929 511.461 423.698 512.431 422.809C513.831 421.528 516.302 421.638 518.019 422.012C527.589 424.099 565.539 445.73 570.335 445.081C571.251 444.959 571.363 444.54 571.77 443.824C571.624 441.289 560.249 427.812 558.093 425.074C550.015 414.839 542.043 404.523 534.181 394.125C531.102 390.08 521.729 379.956 521.96 374.356C521.994 373.476 524.054 369.526 524.848 368.702C531.58 361.714 541.896 347.13 549.597 342.042Z" fill="#FF4D41"/>
<path fill-rule="evenodd" clip-rule="evenodd" d="M295.942 9.6456C300.265 9.45681 302.867 11.7203 304.174 15.724C321.76 69.5775 340.392 123.006 359.665 176.273C361.137 180.339 364.335 187.496 361.151 191.151C360.412 192.014 359.464 192.676 358.398 193.076C354.545 194.517 340.352 196.076 335.879 196.955C326.963 198.707 324.251 170.619 314.963 172.645C307.373 174.302 298.663 177.609 291.259 180.323C288.631 181.288 285.938 184.033 286.308 187.161C287.549 194.238 289.013 200.818 289.811 208.021C289.395 214.939 284.98 216.298 279.664 219.284C274.891 221.965 270.36 225.717 265.219 227.684C263.556 228.32 261.236 228.107 259.739 227.117C258.556 226.261 256.989 221.256 256.612 219.851C253.106 206.795 249.988 193.575 246.856 180.427L228.502 100.283L219.714 61.7277C218.256 55.4219 216.563 48.8505 215.368 42.4998C214.968 40.3772 215.451 37.4119 216.926 35.7606C220.206 32.0878 226.834 29.7193 231.348 27.875C247.606 21.1902 264.43 15.9746 281.618 12.2907C286.15 11.3112 291.366 10.1062 295.942 9.6456ZM277.149 87.49C274.824 87.9911 271.732 88.8301 270.296 90.9028C268.072 94.1149 274.957 136.446 276.602 143.032C276.999 144.622 277.778 147.64 279.088 148.641C280.718 149.886 284.789 148.524 286.55 147.906C289.292 146.942 292.006 145.872 294.721 144.832C298.091 143.673 304.192 142.167 305.968 138.852C306.692 137.499 304.936 133.591 304.371 132.158C300.224 123.153 295.777 114.255 291.202 105.46C288.457 100.184 285.807 94.7209 282.471 89.7957C281.241 87.9786 279.206 87.5632 277.149 87.49Z" fill="#FF4D41"/>
<path fill-rule="evenodd" clip-rule="evenodd" d="M476.076 480.336C480.175 479.459 482.968 481.609 486.029 484.054C494.693 490.975 503.063 498.244 511.695 505.214L578.713 559.195C589.133 567.471 599.506 575.804 609.835 584.196C613.577 587.246 618.437 590.378 621.467 594.057C622.578 595.404 623.392 597.151 623.103 598.93C622.803 600.762 621.713 602.486 620.601 603.934C614.621 611.744 606.045 618.631 598.64 625.082C595.659 627.675 592.68 630.584 589.466 632.877C587.562 634.232 585.011 635.34 582.654 634.499C575.799 632.056 559.143 606.482 552.983 605.751C549.161 605.297 543.585 610.816 540.712 613.011C536.254 616.285 527.994 621.003 524.835 625.071C524.011 626.135 523.536 627.202 523.596 628.567C523.923 636.089 537.19 654.774 537.919 663.021C538.096 665.014 537.684 666.78 536.384 668.323C532.526 672.89 501.286 688.948 495.18 689.364C493.34 689.492 491.653 688.73 490.342 687.45C488.821 685.968 488.109 683.209 487.488 681.214C484.552 671.738 482.126 662.043 479.379 652.505C470.842 623.227 462.562 593.872 454.55 564.446L446.391 536.021C444.288 528.808 439.225 513.831 439.384 507.366C441.436 502.709 463.74 490.633 468.12 485.812C469.102 484.734 474.689 480.991 476.076 480.336ZM494.572 534.59C492.94 532.977 491.209 533.087 489.142 533.508C486.897 534.938 483.812 536.85 483.239 539.663C482.426 543.63 498.317 584.418 501.966 589.199C502.64 590.084 503.269 590.73 504.212 591.315C509.053 591.731 515.08 586.767 519.176 583.96C521.005 582.705 522.995 581.405 524.717 580.134C528.124 577.615 533.085 574.832 529.101 570.25C518.324 557.848 506.258 546.147 494.572 534.59Z" fill="#FF4D41"/>
<path d="M598.715 94.7508C600.204 94.8747 601.541 95.027 602.91 95.6604C610.133 99.0024 623.324 111.222 629.582 117.05C661.996 147.237 689.034 182.291 708.217 222.294C710.772 227.621 715.772 235.975 715.839 241.949C715.864 244.105 715.252 245.089 713.736 246.57C709.732 250.481 680.262 265.286 674.385 267.704C672.661 268.414 670.03 269.518 668.173 269.27C666.13 268.998 664.207 267.027 663.06 265.457C660.302 261.68 658.44 256.788 656.395 252.577C653.493 246.595 650.489 240.666 647.377 234.791C645.011 230.31 640.588 220.455 634.25 223.77C627.44 227.33 620.67 234.387 614.916 239.552L588.297 263.456C578.742 272.503 568.758 281.162 559.093 290.092C553.857 294.928 548.917 300.061 543.517 304.716C540.918 306.956 537.767 309.329 534.223 307.607C532.794 306.863 530.961 305.051 530.19 303.653C523.909 292.228 517.294 281.199 510.086 270.325C508.101 267.333 507.249 264.255 509.798 261.293C513.345 257.167 517.552 253.7 521.684 250.136L538.032 236.167C555.262 221.605 572.406 206.945 589.469 192.189C594.353 187.96 600.471 183.082 604.713 178.3C607.773 174.849 600.004 168.177 597.595 165.827C592.656 160.957 587.584 156.22 582.395 151.621C578.03 147.803 573.482 144.131 569.452 139.959C565.958 136.343 565.35 132.461 568.315 128.253C572.39 122.556 576.853 117.228 581.349 111.837C585.286 107.112 588.839 101.66 593.294 97.409C594.972 95.8091 596.487 95.2115 598.715 94.7508Z" fill="#FF4D41"/>
<path d="M332.344 513.446C335.248 513.189 339.052 513.593 341.976 513.874C363.2 515.923 384.694 514.692 405.797 512.002C407.868 511.736 413.472 511.524 414.546 513.327C418.532 520.017 417.711 531.315 418.833 539.066C420.23 549.893 406.916 549.112 399.438 549.766C392.014 550.478 384.577 551.033 377.132 551.437C373.048 551.644 368.68 551.681 364.649 552.317C360.695 552.938 359.067 555.3 358.951 559.237C358.772 565.301 358.994 571.627 359.467 577.709C362.829 581.644 366.017 581.011 370.861 580.88C382.333 580.57 393.775 579.628 405.234 579.053C409.64 578.831 413.114 580.473 413.401 585.271C413.909 593.102 414.689 601.159 415.021 608.997C415.342 618.316 405.304 617.156 398.943 617.788C387.798 618.892 376.429 618.762 365.332 620.008C361.062 620.485 358.525 623.674 358.552 627.915C358.309 633.22 359.235 639.011 358.966 644.254C358.264 657.933 373.406 654.77 383.398 654.179C393.233 653.618 403.054 652.877 412.862 651.968C417.98 651.351 431.893 648.35 433.61 654.687C436.782 666.419 437.412 679.382 439.164 691.441C440.882 703.282 425.885 702.806 417.488 703.938C385.538 708.267 353.17 708.56 321.146 704.818C315.793 704.236 309.599 703.874 304.595 701.997C300.129 700.172 299.219 696.289 299.721 691.976C301.459 677.035 303.732 662.176 305.871 647.295C310.054 617.292 314.643 587.348 319.637 557.468C320.789 550.412 324.682 521.351 327.201 516.952C328.368 514.914 330.185 514.108 332.344 513.446Z" fill="#FF4D41"/>
<path d="M186.765 361.881C197.54 361.286 195.753 369.979 197.721 378.232C198.75 382.493 199.928 386.715 201.254 390.89C204.479 400.842 208.504 410.512 213.292 419.809C215.242 423.657 220.493 431.358 219.199 435.735C217.963 439.91 203.593 450.16 199.291 452.387C197.975 453.067 196.766 453.497 195.309 452.954C189.124 450.643 176.734 421.939 173.448 414.674C172.659 412.928 171.589 410.197 169.603 409.563C165.224 408.168 144.492 416.576 140.094 419.206C138.524 420.145 136.779 421.394 136.445 423.318C134.676 433.503 160.165 467.937 157.834 475.121C157.273 476.851 155.603 478.521 154.282 479.704C150.457 483.127 145.53 485.746 141.304 488.674C137.942 491.001 134.732 493.972 131.014 495.701C129.2 496.543 127.417 496.935 125.497 496.202C123.853 495.574 122.536 494.32 121.481 492.942C117.079 487.2 110.966 471.755 107.716 464.492C105.795 460.053 99.1105 442.184 96.3991 440.51C94.7032 439.46 92.1916 439.793 90.36 440.198C84.991 441.386 79.3844 444.234 74.3438 446.417C62.47 451.555 50.8129 457.133 39.0373 462.482C34.9845 464.324 30.279 467.051 25.8846 467.759C24.2472 468.022 22.2466 468.069 20.8632 467.005C12.3232 460.438 2.91974 409.625 1.34474 397.469C0.754904 392.915 -1.23688 383.225 1.92188 379.51C3.38908 377.781 5.986 376.999 8.13687 376.644C12.7717 375.885 17.7091 375.997 22.4138 375.576L62.4073 372.18L186.765 361.881Z" fill="#FF4D41"/>
<path d="M364.257 213.039L285.809 263.406L285.809 344.389L364.257 414.507L442.704 344.389L442.704 263.406L364.257 213.039Z" fill="#FF4D41"/>
<rect width="193.698" height="3.5218" rx="1.7609" transform="matrix(4.04143e-08 -1 -1 -4.72775e-08 365.93 410.855)" fill="#D30A0A"/>
<rect x="346.24" y="328.055" width="11.0672" height="11.0672" rx="5.53361" fill="#FF4D41" stroke="white" stroke-width="4.62235"/>
<rect x="371.615" y="328.055" width="11.0672" height="11.0672" rx="5.53361" fill="#FF4D41" stroke="white" stroke-width="4.62235"/>
<path d="M404.283 348.147C382.128 370.302 346.207 370.302 324.052 348.147" stroke="white" stroke-width="14.9676" stroke-linecap="round"/>
<path d="M373.171 477.019L366.04 412.747L362.474 412.747L355.342 477.019L373.171 477.019Z" fill="#FF4D41"/>
<path d="M373.171 477.019L366.04 487.144L362.474 487.144L355.342 477.019L373.171 477.019Z" fill="#FF4D41"/>
<path d="M368.769 482.742L364.499 530.726L364.015 530.726L359.744 482.742L368.769 482.742Z" fill="#FF4D41"/>
</svg>
