<svg width="24" height="24" viewBox="0 0 24 24" fill="none" xmlns="http://www.w3.org/2000/svg">
<path d="M9.83471 16.711H13.9752L11.8904 12.5708L9.83471 16.711ZM7.81229 12.6709C8.43354 12.6709 8.96224 12.454 9.39837 12.0202C9.83471 11.5866 10.0529 11.0652 10.0529 10.456C10.0529 9.83471 9.83471 9.30601 9.39837 8.86987C8.96224 8.43354 8.43549 8.21537 7.81812 8.21537C7.20096 8.21537 6.67654 8.43354 6.24487 8.86987C5.81321 9.30601 5.59737 9.83276 5.59737 10.4501C5.59737 11.0673 5.81428 11.5917 6.24808 12.0234C6.68169 12.455 7.2031 12.6709 7.81229 12.6709ZM15.979 12.6709C16.6002 12.6709 17.1289 12.454 17.565 12.0202C18.0014 11.5866 18.2195 11.0652 18.2195 10.456C18.2195 9.83471 18.0014 9.30601 17.565 8.86987C17.1289 8.43354 16.6022 8.21537 15.9848 8.21537C15.3676 8.21537 14.8432 8.43354 14.4115 8.86987C13.9799 9.30601 13.764 9.83276 13.764 10.4501C13.764 11.0673 13.9809 11.5917 14.4147 12.0234C14.8484 12.455 15.3698 12.6709 15.979 12.6709ZM4.6655 23.8099V18.7714C3.97542 18.461 3.34765 18.0459 2.78221 17.526C2.21657 17.006 1.7256 16.3974 1.30929 15.7001C0.892792 15.0028 0.5705 14.2389 0.342417 13.4082C0.114139 12.5777 0 11.6885 0 10.7406C0 7.6089 1.11057 5.03582 3.33171 3.02137C5.55304 1.00712 8.40904 0 11.8997 0C15.3902 0 18.2478 1.00712 20.4727 3.02137C22.6975 5.03582 23.8099 7.6089 23.8099 10.7406C23.8099 11.6885 23.6909 12.5777 23.4529 13.4082C23.2151 14.2389 22.888 15.0028 22.4715 15.7001C22.0552 16.3974 21.5642 17.006 20.9985 17.526C20.4331 18.0459 19.817 18.4648 19.1502 18.7827V23.8099H15.757V19.903H13.6882V23.8099H10.1217V19.903H8.05292V23.8099H4.6655Z" fill="white"/>
</svg>
