<svg width="17" height="24" viewBox="0 0 17 24" fill="none" xmlns="http://www.w3.org/2000/svg">
<path d="M13.08 0L5.04859 0C2.98287 0 1.31143 1.67143 1.31143 3.73716L1.31143 5.14287C1.46572 5.11716 1.62858 5.09145 1.80001 5.09145L5.70859 5.09145C7.38003 5.09145 8.74289 6.48859 8.74289 8.21146H10.86C11.94 8.21146 12.8229 7.3286 12.8229 6.24859L12.8229 5.09145C12.8229 4.74859 13.1058 4.46573 13.4486 4.46573C13.7915 4.46573 14.0743 4.74859 14.0743 5.09145L14.0743 6.24859C14.0743 8.01431 12.6343 9.45432 10.8686 9.45432H8.50289C8.2286 10.1057 7.74003 10.6372 7.13145 10.9715C8.2886 11.82 9.05146 13.1915 9.05146 14.7343C9.05146 15.0772 8.7686 15.3601 8.42574 15.3601C8.08288 15.3601 7.80003 15.0772 7.80003 14.7343C7.80003 12.8572 6.27431 11.3315 4.39716 11.3315H3.61716C3.2743 11.3315 2.99144 11.0486 2.99144 10.7057C2.99144 10.3629 3.2743 10.08 3.61716 10.08L5.72573 10.08C6.71145 10.08 7.5086 9.24003 7.5086 8.21146C7.5086 7.18288 6.69431 6.33431 5.70859 6.33431L1.80001 6.33431C0.814288 6.33431 0.0171429 7.17431 0.0171429 8.20288L0.0171429 13.2086C0.0171429 13.2429 0 13.2772 0 13.3115H0.00857125C0.0771429 15.5829 1.55143 16.7572 2.04858 17.1258C2.16001 17.2029 2.28001 17.2458 2.41715 17.2458L15.4286 17.2458C15.6343 17.2458 15.8315 17.1429 15.9429 16.9715C16.2601 16.5001 16.8343 15.3858 16.8343 13.2429L16.8343 3.73716C16.8258 1.67143 15.1458 0 13.08 0Z" fill="white"/>
<path d="M14.9043 18.8057L3.22142 18.8057C2.87856 18.8057 2.5957 19.0885 2.5957 19.4314L2.5957 22.7057C2.5957 23.4171 3.17856 24 3.88999 24H14.2357C14.9472 24 15.53 23.4171 15.53 22.7057V19.4314C15.53 19.0885 15.2472 18.8057 14.9043 18.8057ZM11.1843 21.9257C11.1843 22.2685 10.9014 22.5514 10.5586 22.5514H7.56715C7.22429 22.5514 6.94143 22.2685 6.94143 21.9257L6.94143 20.88C6.94143 20.5371 7.22429 20.2542 7.56715 20.2542H10.5586C10.9014 20.2542 11.1843 20.5371 11.1843 20.88V21.9257Z" fill="white"/>
</svg>
